<?xml version="1.0" standalone="no"?>
<!DOCTYPE svg PUBLIC "-//W3C//DTD SVG 20010904//EN"
 "http://www.w3.org/TR/2001/REC-SVG-20010904/DTD/svg10.dtd">
<svg version="1.0" xmlns="http://www.w3.org/2000/svg"
 width="35.000000pt" height="35.000000pt" viewBox="0 0 48.000000 48.000000"
 preserveAspectRatio="xMidYMid meet">

<g transform="translate(0.000000,48.000000) scale(0.100000,-0.100000)"
fill="#FF3838FF" stroke="none">
<path d="M120 434 l-96 -35 16 -144 c9 -79 18 -146 20 -148 16 -14 169 -97
179 -97 10 0 127 61 170 89 11 7 20 53 31 155 l16 145 -99 36 c-54 19 -108 35
-120 34 -12 0 -65 -16 -117 -35z m190 -156 c34 -79 64 -149 67 -156 3 -8 -5
-12 -25 -12 -26 0 -32 5 -42 35 -11 35 -12 35 -70 35 -58 0 -59 0 -70 -35 -10
-30 -16 -35 -42 -35 -20 0 -28 4 -25 13 39 95 132 297 137 297 4 0 35 -64 70
-142z"/>
<path d="M226 282 c-22 -44 -20 -52 14 -52 34 0 35 5 16 51 l-14 33 -16 -32z"/>
</g>
</svg>
