<svg width="324" height="158" viewBox="0 0 324 158" fill="none" xmlns="http://www.w3.org/2000/svg">
<g clip-path="url(#clip0_73_41)">
<path d="M84.0586 108.059V132.766L1.44141 96.6328V79.836L20.3867 84.3281L84.0586 108.059ZM20.4844 89.211L1.44141 93.3125V76.5156L84.0586 40.3828V64.9922L20.4844 89.211ZM163.355 5.81251C174.228 5.81251 183.505 7.44011 191.188 10.6953C198.935 13.9505 204.827 18.7682 208.863 25.1484C212.965 31.5287 215.016 39.3737 215.016 48.6836C215.016 55.9753 213.714 62.3229 211.109 67.7266C208.57 73.1302 204.925 77.655 200.172 81.3008C195.419 84.9466 189.788 87.8112 183.277 89.8945L175.367 94.0938H130.25V73.0977H163.453C169.182 73.0977 173.935 72.1211 177.711 70.168C181.487 68.2149 184.286 65.513 186.109 62.0625C187.997 58.612 188.941 54.6732 188.941 50.2461C188.941 43.0846 186.891 37.388 182.789 33.1563C178.688 28.9245 172.21 26.8086 163.355 26.8086H138.355V148H112.379V5.81251H163.355ZM159.742 84.1328H187.184L220.68 146.633V148H192.75L159.742 84.1328ZM237.965 64.7969V40.4805L322.535 76.418V93.3125L302.711 88.2344L237.965 64.7969ZM302.809 84.2305L322.535 79.836V96.5352L237.965 132.668V108.254L302.809 84.2305Z" fill="#81F4BD"/>
</g>
<defs>
<clipPath id="clip0_73_41">
<rect width="324" height="158" fill="white"/>
</clipPath>
</defs>
</svg>
